<?xml version="1.0" standalone="no"?>
<!DOCTYPE svg PUBLIC "-//W3C//DTD SVG 20010904//EN"
 "http://www.w3.org/TR/2001/REC-SVG-20010904/DTD/svg10.dtd">
<svg version="1.0" xmlns="http://www.w3.org/2000/svg"
 width="700.000000pt" height="700.000000pt" viewBox="0 0 700.000000 700.000000"
 preserveAspectRatio="xMidYMid meet">
<metadata>
Created by potrace 1.11, written by Peter Selinger 2001-2013
</metadata>
<g transform="translate(0.000000,700.000000) scale(0.100000,-0.100000)"
fill="#000000" stroke="none">
<path d="M888 6980 c-119 -25 -178 -45 -281 -96 -208 -102 -375 -265 -485
-475 -37 -70 -84 -198 -96 -264 -4 -16 -10 -41 -14 -55 -11 -39 -13 -5085 -1
-5155 71 -444 376 -781 818 -903 l96 -27 2565 0 c2463 0 2568 1 2645 19 334
77 597 281 749 583 47 92 88 222 105 328 6 37 10 1017 9 2570 0 2697 2 2576
-50 2735 -105 323 -365 591 -674 696 -185 63 45 58 -2749 60 -2443 3 -2554 2
-2637 -16z m846 -2071 c3 -4 214 -833 226 -889 5 -19 22 -87 39 -150 26 -99
134 -524 146 -572 19 -81 87 -344 90 -347 4 -3 16 40 41 144 20 87 19 85 27
115 4 14 34 140 67 280 34 140 70 293 81 340 12 47 22 92 24 100 2 8 24 99 49
201 25 103 47 197 50 210 18 86 135 562 139 566 3 2 161 5 351 6 l346 2 4 -25
c3 -14 8 -65 11 -115 4 -49 8 -108 10 -130 2 -22 6 -78 10 -125 3 -47 8 -105
10 -130 2 -25 7 -83 11 -130 3 -47 7 -105 10 -130 2 -25 6 -81 9 -125 3 -44 7
-96 9 -115 2 -19 7 -80 10 -135 4 -55 9 -116 11 -135 2 -19 6 -75 10 -125 3
-49 8 -108 10 -130 2 -22 7 -80 10 -130 3 -49 8 -112 11 -140 2 -27 6 -81 9
-120 3 -38 8 -97 11 -130 2 -33 7 -89 9 -125 3 -36 7 -85 9 -110 3 -25 7 -90
11 -145 4 -55 8 -111 10 -124 2 -13 7 -74 11 -137 4 -81 3 -114 -5 -114 -14
-1 -294 -1 -418 0 l-98 0 -1 38 c-1 41 -13 251 -19 322 -2 25 -6 95 -10 155
-3 61 -8 137 -10 170 -3 33 -7 103 -10 155 -3 52 -8 131 -11 175 -3 44 -7 114
-9 155 -2 41 -7 122 -10 180 -11 188 -13 232 -21 480 -4 135 -7 299 -7 365 l0
120 -18 -60 c-11 -33 -21 -69 -23 -80 -4 -21 -23 -97 -31 -127 -3 -10 -7 -26
-9 -35 -2 -10 -54 -216 -116 -458 -62 -242 -113 -447 -115 -455 -2 -8 -22 -87
-45 -175 -23 -88 -46 -178 -51 -200 -5 -22 -31 -125 -57 -230 l-48 -190 -256
0 -256 -1 -28 101 c-77 285 -95 351 -98 365 -4 14 -157 582 -191 705 -9 33
-20 76 -25 95 -4 19 -49 186 -99 370 -50 183 -91 340 -91 346 0 7 -3 15 -7 17
-5 3 -8 -182 -8 -411 0 -230 -4 -482 -9 -562 -8 -145 -9 -171 -20 -350 -3 -52
-8 -133 -11 -180 -7 -117 -15 -250 -20 -340 -3 -41 -7 -111 -9 -155 -3 -44 -8
-129 -12 -190 -3 -60 -7 -111 -8 -112 -2 -3 -168 -4 -358 -4 -153 1 -167 2
-164 18 3 16 10 100 21 243 5 62 12 157 20 245 7 79 13 164 20 250 3 39 7 97
10 130 2 33 7 94 10 135 3 41 8 91 10 110 2 19 7 76 10 125 3 50 8 113 10 140
9 101 14 162 20 250 4 50 8 106 10 125 2 19 6 76 10 125 3 50 8 101 10 115 2
14 7 70 10 125 4 55 8 116 10 135 2 19 7 80 10 135 4 55 8 110 10 123 2 13 7
67 11 120 6 90 11 147 13 164 1 3 9 8 18 10 23 4 674 1 677 -3z m3198 1 c742
-7 1121 -240 1130 -694 3 -189 -47 -323 -166 -441 -75 -75 -163 -129 -266
-164 l-78 -27 72 -18 c164 -42 344 -140 426 -233 83 -95 131 -241 133 -407 3
-205 -35 -354 -122 -480 -124 -180 -397 -304 -751 -341 -30 -4 -68 -8 -85 -10
-23 -4 -597 -6 -1015 -5 l-56 0 0 1410 0 1409 21 3 c19 3 336 2 757 -2z"/>
<path d="M4696 4511 c-2 -3 -3 -175 -2 -381 l1 -375 200 -2 c110 0 225 3 255
8 122 22 210 64 273 133 121 132 115 406 -13 514 -49 42 -166 83 -280 98 -53
7 -431 11 -434 5z"/>
<path d="M4698 3376 c0 -1 -2 -200 -3 -443 l-1 -442 240 3 c322 5 455 31 559
110 109 83 155 270 111 456 -36 154 -133 241 -323 292 -65 17 -112 20 -328 22
-139 1 -254 2 -255 2z"/>
</g>
</svg>
