<?xml version="1.0" encoding="utf-8"?>
<!-- Generator: Adobe Illustrator 23.0.0, SVG Export Plug-In . SVG Version: 6.00 Build 0)  -->
<svg version="1.1" id="Capa_1" xmlns="http://www.w3.org/2000/svg" xmlns:xlink="http://www.w3.org/1999/xlink" x="0px" y="0px"
	 viewBox="0 0 396.5 396.5" fill="#626262" style="enable-background:new 0 0 396.5 396.5;" xml:space="preserve">
<g>
	<path d="M291.4,350.5h-49.3c-1.8,0-3.2-1.5-3.2-3.2v-12c0-1.8-1.5-3.2-3.2-3.2h-69c-1.8,0-3.2,1.5-3.2,3.2v12
		c0,1.8-1.5,3.2-3.2,3.2H123c-1.8,0-3.2,1.5-3.2,3.2v13.9c0,1.8,1.5,3.2,3.2,3.2h168.4c1.8,0,3.2-1.5,3.2-3.2v-13.9
		C294.6,351.9,293.2,350.5,291.4,350.5z"/>
	<g>
		<path d="M396.5,108V47.9c0-12.2-10-22.2-22.2-22.2h0h-352h0C10,25.7,0,35.6,0,47.9V108c0,0.8,0,1.5,0,2.1v182.4
			c0,12.2,10,22.2,22.2,22.2l245.3,0c0,0,0,0,0,0h106.8c12.2,0,22.2-10,22.2-22.2V110.1C396.5,109.5,396.5,108.8,396.5,108z
			 M208.3,285.6c0,5.5-4.5,10-10,10c-5.5,0-10-4.5-10-10c0-5.5,4.5-10,10-10C203.8,275.5,208.3,280,208.3,285.6z M267.8,264.8H128.7
			H16.8V112.6c0.2-1.3,0-3.4,0-6.9c0-15.5,0-57.8,0-57.8c0-2.9,2.5-5.4,5.4-5.4h352c2.9,0,5.4,2.5,5.4,5.4c0,0,0,42.3,0,57.8
			c0,3.4-0.2,5.6,0,6.9v152.2H267.8z"/>
	</g>
</g>
<g>
	<path d="M162.7,183.4c0,2.3-0.7,4.2-2.1,5.7c-1.4,1.5-3,2.2-4.7,2.2c-1.2,0-2.3-0.4-3.3-1.1L104.4,156c-2.4-1.8-3.5-4.1-3.5-7.1
		c0-2.7,1.2-5,3.5-7l48.3-34.4c1.2-0.6,2.4-0.9,3.4-0.9c1.8,0,3.4,0.7,4.7,2.1c1.3,1.4,2,3.2,2,5.3c0,3.1-1.1,5.4-3.3,7l-39.4,27.7
		l39.4,27.9C161.7,178.2,162.7,180.5,162.7,183.4z"/>
	<path d="M214.8,83c1.1-0.8,2.4-1.2,3.7-1.2c1.8,0,3.4,0.8,4.6,2.2c1.3,1.5,1.9,3.3,1.9,5.5c0,1.1-0.2,2.3-0.5,3.4l-39.4,116.6
		c-0.5,1.5-1.4,2.7-2.5,3.5c-1.1,0.8-2.4,1.2-3.7,1.2c-1.8,0-3.4-0.8-4.7-2.2c-1.3-1.5-2-3.3-2-5.5c0-1,0.2-2.2,0.7-3.4l39.4-116.6
		C212.8,85,213.7,83.9,214.8,83z"/>
	<path d="M295.6,148.9c0,3-1.2,5.4-3.5,7.1l-48.3,34.2c-1,0.7-2,1.1-3.3,1.1c-1.7,0-3.3-0.7-4.7-2.2c-1.4-1.5-2.1-3.4-2.1-5.7
		c0-2.9,1.1-5.2,3.3-6.8l39.4-27.9L237,121c-2.2-1.5-3.3-3.9-3.3-7c0-2.2,0.7-3.9,2-5.3c1.3-1.4,2.9-2.1,4.7-2.1
		c1,0,2.2,0.3,3.4,0.9l48.3,34.4C294.4,143.9,295.6,146.2,295.6,148.9z"/>
</g>
</svg>
