<svg xmlns="http://www.w3.org/2000/svg" viewBox="0 0 217.79 54.08"><defs><style>.a{fill:#2ba9e0;}</style></defs><title>drupal8-logo</title><path class="a" d="M64.7,34.61c0,3.46-1.49,6.25-5,6.25s-5-2.79-5-6.25V22.81H48.36v11.8C48.36,41.44,52.79,47,59.68,47s11.39-5.53,11.39-12.36V22.8H64.69Z"/><rect class="a" x="128.58" y="15.6" width="6.34" height="30.76"/><polygon class="a" points="139.6 16.73 141.41 16.73 141.41 21.61 142.74 21.61 142.74 16.73 144.55 16.73 144.55 15.63 139.6 15.63 139.6 16.73"/><polygon class="a" points="149.88 15.63 148.54 19.74 148.52 19.74 147.11 15.63 145.25 15.63 145.25 21.61 146.49 21.61 146.49 17.41 146.5 17.41 147.98 21.61 149.01 21.61 150.49 17.37 150.5 17.37 150.5 21.61 151.74 21.61 151.74 15.63 149.88 15.63"/><path class="a" d="M34.11,27c-.07.14-.07.22-.31.22a.26.26,0,0,1-.23-.22l-.68-4.11H27.21V46.34h6.37V33.62c0-1,2.83-6,8.3-4.74a8.67,8.67,0,0,1,3.94,1.81V23.54a10,10,0,0,0-2.65-1C37.71,21.29,34.25,26.67,34.11,27Z"/><path class="a" d="M85.89,22.35A12.5,12.5,0,0,0,73.33,34.79V54.08h6.39V42.46s0-.25.24-.26.25.14.3.26a7.58,7.58,0,0,0,9,4.3,12.43,12.43,0,0,0-3.41-24.41Zm0,18.74a6.3,6.3,0,1,1,6.36-6.3A6.32,6.32,0,0,1,85.89,41.09Z"/><path class="a" d="M113.44,22.35A12.43,12.43,0,0,0,110,46.76a7.56,7.56,0,0,0,9-4.3c.06-.12.1-.26.31-.26s.24.26.24.26v3.89H126V34.79A12.5,12.5,0,0,0,113.44,22.35Zm0,18.74a6.3,6.3,0,1,1,6.35-6.3A6.33,6.33,0,0,1,113.44,41.09Z"/><path class="a" d="M7.78,15.58H0V46.3H7.25c9.52,0,17.09-1.84,17.09-15.36S17.19,15.58,7.78,15.58ZM9.05,41,6.42,41V20.91H9c5.87,0,8.94.81,8.94,10C17.92,40.55,14.44,41,9.05,41Z"/><circle class="a" cx="196.12" cy="35.91" r="7.29"/><path class="a" d="M205.19,27.23a12.55,12.55,0,0,1-1.9,19,21.13,21.13,0,0,0,13.23-11.85c3.08-7.58.21-13.28-4.61-18.45a9.45,9.45,0,0,1,.23,2.07A9.62,9.62,0,0,1,205.19,27.23Z"/><circle class="a" cx="202.53" cy="17.99" r="5.58"/><path class="a" d="M186.51,44a12.56,12.56,0,0,1,8.11-20.56,9.6,9.6,0,0,1,7.91-15.06,9.11,9.11,0,0,1,1.29.09A72.64,72.64,0,0,1,195.07,0c1.26,13.17-12,8.39-16.9,20.53C174.88,28.67,177.84,38.74,186.51,44Z"/></svg>