<svg xmlns="http://www.w3.org/2000/svg" width="243.32" height="74.9" viewBox="0 0 243.32 74.9"><defs><style>.a{isolation:isolate;}.b{fill:#fff;}.c{fill:#fdc309;}</style></defs><title>Mango Digital Solutions Logo</title><g class="a"><g class="a"><path class="b" d="M2.31,8.46h8.85L15.1,36.69h.12L19.16,8.46H28V47.91H22.15V18H22L17.53,47.91H12.34L7.83,18H7.72V47.91H2.31Z" transform="translate(-2.31 -7.89)"/><path class="b" d="M37.42,8.46h8.4l6.43,39.45h-6.2l-1.13-7.83v.11H37.87l-1.12,7.72H31Zm6.77,26.37-2.77-19.5h-.11l-2.7,19.5Z" transform="translate(-2.31 -7.89)"/><path class="b" d="M55.23,8.46H63l6,23.61h.11V8.46h5.53V47.91H68.31l-7.44-28.8h-.12v28.8H55.23Z" transform="translate(-2.31 -7.89)"/><path class="b" d="M81.21,45.91c-1.58-1.71-2.36-4.16-2.36-7.36V17.81c0-3.19.78-5.64,2.36-7.35s3.87-2.57,6.88-2.57,5.3.86,6.87,2.57,2.37,4.16,2.37,7.35V21.2H91.47V17.42q0-3.89-3.21-3.89t-3.21,3.89V39q0,3.84,3.21,3.84T91.47,39V31.28h-3.1V25.65h9v12.9q0,4.8-2.37,7.36c-1.57,1.71-3.87,2.56-6.87,2.56S82.79,47.62,81.21,45.91Z" transform="translate(-2.31 -7.89)"/><path class="b" d="M103.31,45.88q-2.43-2.6-2.43-7.33V17.81q0-4.72,2.43-7.32t7-2.6q4.58,0,7,2.6t2.43,7.32V38.55q0,4.74-2.43,7.33t-7,2.59Q105.73,48.47,103.31,45.88ZM113.51,39V17.42q0-3.89-3.22-3.89t-3.21,3.89V39q0,3.88,3.21,3.89T113.51,39Z" transform="translate(-2.31 -7.89)"/><path class="b" d="M132.89,8.46h9.36q4.78,0,7,2.22c1.46,1.49,2.2,3.77,2.2,6.85v1.58a10.8,10.8,0,0,1-1,5,5.75,5.75,0,0,1-3,2.76v.11q4.62,1.59,4.63,8.23v3.38q0,4.58-2.4,7t-7,2.4h-9.75Zm8.63,16.06a3.72,3.72,0,0,0,2.79-1,4.53,4.53,0,0,0,.93-3.21v-2.2a5.06,5.06,0,0,0-.76-3.1,2.88,2.88,0,0,0-2.4-1h-3V24.52Zm1.12,17.75a3.13,3.13,0,0,0,2.43-.87,4.53,4.53,0,0,0,.79-3V35a5.71,5.71,0,0,0-.93-3.75,3.93,3.93,0,0,0-3.07-1h-2.77V42.27Z" transform="translate(-2.31 -7.89)"/></g><g class="a"><path class="b" d="M155.67,8.46h6.2V42.27h10.2v5.64h-16.4Z" transform="translate(-2.31 -7.89)"/></g><g class="a"><path class="b" d="M176.81,45.88q-2.42-2.6-2.42-7.33V17.81q0-4.72,2.42-7.32t7-2.6c3,0,5.37.87,7,2.6s2.42,4.17,2.42,7.32V38.55c0,3.16-.8,5.6-2.42,7.33s-3.94,2.59-7,2.59S178.43,47.61,176.81,45.88ZM187,39V17.42q0-3.89-3.21-3.89t-3.21,3.89V39q0,3.88,3.21,3.89T187,39Z" transform="translate(-2.31 -7.89)"/><path class="b" d="M199.36,45.88q-2.43-2.6-2.43-7.33V17.81q0-4.72,2.43-7.32t7-2.6q4.56,0,7,2.6t2.43,7.32V38.55q0,4.74-2.43,7.33t-7,2.59Q201.78,48.47,199.36,45.88ZM209.56,39V17.42q0-3.89-3.21-3.89t-3.22,3.89V39q0,3.88,3.22,3.89T209.56,39Z" transform="translate(-2.31 -7.89)"/><path class="b" d="M219.93,8.46h8.85l3.94,28.23h.11l3.95-28.23h8.85V47.91h-5.86V18h-.12l-4.5,29.87H230L225.45,18h-.11V47.91h-5.41Z" transform="translate(-2.31 -7.89)"/></g></g><path class="c" d="M88.81,79.79a9.71,9.71,0,0,1-7,3,7.92,7.92,0,0,1-4-.88,3.67,3.67,0,0,1-2.13-3.22,8.42,8.42,0,0,1,2-6c.56-.25,1.16-.52,1.79-.83l2-1q.36.12.36.42a4.3,4.3,0,0,1-.91,2,9.45,9.45,0,0,0-1.76,5.31c0,2.19,1.19,3.24,3.53,3.19a5,5,0,0,0,4-2.13,6.92,6.92,0,0,0,1.46-4.35q0-2.55-2.62-8c-.44.29-1,.59-1.55.91s-1.27.65-2,1c-.16,0-.32-.26-.48-.79.48-.29,1.1-.63,1.85-1A11.21,11.21,0,0,0,86,65.91c.43-.48,1.07-1.95,2-3.14,1.14-1.45,2-2.24,2.74-2.26a.78.78,0,0,1,.91.63,1.13,1.13,0,0,1,0,.26,6.21,6.21,0,0,1-2.37,3.77q2.49,6,2.49,7.54A9.79,9.79,0,0,1,88.81,79.79Z" transform="translate(-2.31 -7.89)"/><path class="c" d="M110,78.37a12.51,12.51,0,0,1-8.21,3.91,6,6,0,0,1-5.23-2.17,8.59,8.59,0,0,1-2.13-5.59c-.09-3.48,2.13-6.5,6.51-9a16.43,16.43,0,0,1,7.48-2.22,10,10,0,0,1,2.25.19c1.14.21,1.77.55,1.77.87s-.31.69-.92,1l-2.19,1a4.89,4.89,0,0,0-4-1.32c-2.07.09-3.72,1.27-5,3.38a11.46,11.46,0,0,0-1.7,6,6.3,6.3,0,0,0,1.58,4.38,5,5,0,0,0,4.13,1.65,5.36,5.36,0,0,0,4.33-2.58,8.78,8.78,0,0,0,1.46-5,8.45,8.45,0,0,0-1.46-4.06,9,9,0,0,1,3.58-1.71c.86,0,1.27,1,1.28,3A11.52,11.52,0,0,1,110,78.37Z" transform="translate(-2.31 -7.89)"/><path class="c" d="M125.44,43.13l-1.34.58a7.65,7.65,0,0,1-1.7.71c-.33,0-.49-.29-.49-.94.57-.24,1.25-.53,2-.89s1.69-.79,2.7-1.3a23.5,23.5,0,0,1,3-1.42c.12,0,.18.53.18,1.63q0,4.08-5.84,23.15c-.33.95-.74,2.15-1.25,3.6l-1.79,5.11a56,56,0,0,0-1.83,5.34c0,.41.2.6.61.57a7.29,7.29,0,0,0,2.4-1.27l1-.64,1.34-.91c.25.11.37.4.37.89a38.32,38.32,0,0,1-4.08,2.45c-2.14,1.18-3.53,1.73-4.07,1.71a1.33,1.33,0,0,1-1.47-1.19,1.61,1.61,0,0,1,0-.31,11,11,0,0,1,.67-2.47l4-11.13c.36-1,.84-2.5,1.43-4.5s1.29-4.56,2.1-7.65q2.67-10.16,2.68-11.43Z" transform="translate(-2.31 -7.89)"/><path class="c" d="M146.12,77.24a3.91,3.91,0,0,0,1.34-.77l1.16-.76c.49,0,.73.15.73.56a12.66,12.66,0,0,1-1.07,1,11.16,11.16,0,0,1-1.61,1.1l-1.73,1a5.36,5.36,0,0,1-1.37.59,1.8,1.8,0,0,1-1.8-.93,4.19,4.19,0,0,1-.64-2.23A11.92,11.92,0,0,1,141.8,73a31.91,31.91,0,0,0,1.1-3.3c-.65.94-1.39,2-2.22,3s-1.76,2.24-2.77,3.49c-2.31,2.81-4.5,4.28-6.57,4.43-1.91.13-2.93-.9-3-3-.08-2.92,1.38-7.25,4.26-12.89l-3,1c-.37.1-.59-.19-.67-.87.81-.26,1.68-.55,2.61-.88a30.94,30.94,0,0,0,2.92-1.21l3-1.37c.33,0,.49.08.49.33a13.36,13.36,0,0,1-1.28,2.46,33.75,33.75,0,0,0-2.19,4.48Q132,75.6,132,76c0,1.46.44,2.16,1.34,2.09s2.29-1,4-3c3.73-4.37,6.29-10.15,8.28-12.3A9.66,9.66,0,0,1,150,60.52c.08,0,.12,0,.12.17s-.51,1.48-1.52,4.07c-2.56,6.73-3.83,10.49-3.83,11.31S145.23,77.31,146.12,77.24Z" transform="translate(-2.31 -7.89)"/><path class="c" d="M163.28,61.75a9.93,9.93,0,0,1-1.34,1,7.07,7.07,0,0,1-2.92.41q-3.28,9.51-3.28,12.18c0,.85.4,1.25,1.21,1.18q.8-.06,3.59-2.52c.37,0,.55.26.55.87-2.51,2.5-5,3.85-7.42,4-1.22.09-1.83-.76-1.83-2.54s1.24-6.18,3.71-13.06h-2.92l1.59-2.68,2.49-.19,3.1-8.7c2.56-1.29,3.89-1.94,4-2s.36.1.36.34l-4.25,10.43a5.21,5.21,0,0,0,.79,0h.67a6.24,6.24,0,0,0,2.67-.7l.19.72C164.26,60.78,163.93,61.2,163.28,61.75Z" transform="translate(-2.31 -7.89)"/><path class="c" d="M170.34,75.09a12.39,12.39,0,0,0,2.92-2.22c.41,0,.61.17.61.62l-3.77,3.2a4.93,4.93,0,0,1-2.62,1.17,1.63,1.63,0,0,1-1.46-.71,2.57,2.57,0,0,1-.61-1.63q0-3.1,3.9-13.25l-2.44.79c-.32,0-.49-.29-.49-.94a30.51,30.51,0,0,0,4.39-1.91,27.84,27.84,0,0,1,3.34-1.52c.33,0,.49.14.49.51a47.73,47.73,0,0,0-3,7.16c-1.53,4.12-2.32,6.64-2.32,7.53S169.61,75.14,170.34,75.09Zm4.32-22.22c-1,.8-3.5,1.75-4.14,1.4-.1-.06-.18-.42-.18-.54A5.69,5.69,0,0,0,172.23,52a6.21,6.21,0,0,0,.48-2.59,1.9,1.9,0,0,0,.61-.2l.91-.4c.33-.14.64-.28,1-.4a2.61,2.61,0,0,1,.82-.21c.36,0,.55.26.55.87A4.58,4.58,0,0,1,174.66,52.87Z" transform="translate(-2.31 -7.89)"/><path class="c" d="M192,72.63a13,13,0,0,1-8.21,4.06,6,6,0,0,1-5.24-2,8.29,8.29,0,0,1-2.13-5.5c-.08-3.48,2.13-6.61,6.51-9.22a16.35,16.35,0,0,1,7.49-2.38,10,10,0,0,1,2.25.17c1.14.2,1.76.54,1.76.87s-.3.69-.91,1l-2.19,1a4.79,4.79,0,0,0-4-1.27c-2.06.14-3.72,1.35-5,3.5a11.85,11.85,0,0,0-1.71,6.08,6.12,6.12,0,0,0,1.58,4.33,4.89,4.89,0,0,0,4.14,1.55,5.45,5.45,0,0,0,4.32-2.65,8.78,8.78,0,0,0,1.46-5,8.23,8.23,0,0,0-1.46-4,9,9,0,0,1,3.59-1.74c.85,0,1.27,1,1.28,3A11.64,11.64,0,0,1,192,72.63Z" transform="translate(-2.31 -7.89)"/><path class="c" d="M215.85,66.79c-.24.65-.55,1.43-.91,2.34s-.77,2-1.22,3.15c.33-.1.76-.2,1.31-.33l2-.45c.12,0,.24.33.36,1a31.88,31.88,0,0,0-4.71,1.2,17.43,17.43,0,0,0-3.38,1.53l-.31-.14-.48-.19a66.52,66.52,0,0,0,4-8.86A20.76,20.76,0,0,0,214,60.52c0-1.25-.42-1.87-1.27-1.84q-1.53.06-5.66,5.47a74.15,74.15,0,0,0-6.27,9.62c-.4.18-1,.46-1.64.82l-2.5,1.29a14.35,14.35,0,0,1,1-3.64c.82-2.24,1.24-3.36,2.07-5.59a33.67,33.67,0,0,0,1.82-6.91c-.28.09-.66.24-1.12.42s-1.05.44-1.74.76a1.29,1.29,0,0,1-.42-.88c3.4-1.25,5.65-2.37,6.75-3.4.49,0,.73.09.73.33a21,21,0,0,1-.46,2.49,32.51,32.51,0,0,1-.94,3.24,21.48,21.48,0,0,0-1.09,5q2.25-3.27,4-5.66c2.72-3.66,5.45-5.53,8.15-5.68,1.5-.09,2.26.73,2.26,2.48A25.56,25.56,0,0,1,215.85,66.79Z" transform="translate(-2.31 -7.89)"/><path class="c" d="M232.77,71.74a9.85,9.85,0,0,1-7,3,8.14,8.14,0,0,1-4-.83,3.58,3.58,0,0,1-2.13-3.17,8.54,8.54,0,0,1,2-6.07q.86-.39,1.8-.87c.63-.31,1.28-.66,2-1q.36.12.36.42a4.3,4.3,0,0,1-.91,2,9.55,9.55,0,0,0-1.77,5.33c0,2.2,1.2,3.22,3.53,3.16a5.05,5.05,0,0,0,4-2.12,6.92,6.92,0,0,0,1.46-4.33c0-1.7-.88-4.38-2.62-8-.45.29-1,.59-1.55.9s-1.27.66-2,1c-.16,0-.32-.26-.49-.78.49-.29,1.11-.64,1.86-1A11.27,11.27,0,0,0,230,57.83c.43-.48,1.06-1.94,2-3.12,1.14-1.43,2-2.21,2.73-2.21a.82.82,0,0,1,.92.68.88.88,0,0,1,0,.23,6.11,6.11,0,0,1-2.38,3.72c1.67,4,2.5,6.55,2.5,7.6A9.62,9.62,0,0,1,232.77,71.74Z" transform="translate(-2.31 -7.89)"/></svg>