<svg id="Capa_1" enable-background="new 0 0 512 512" height="512" fill="#fdc309" viewBox="0 0 512 512" width="512" xmlns="http://www.w3.org/2000/svg"><path id="XMLID_202_" d="m482 0h-452c-16.542 0-30 13.458-30 30v360c0 16.542 13.458 30 30 30h103.864c11.348 25.281 33.544 41.893 56.968 55.96 30.003 18.018 59.987 34.625 60.286 34.79 1.482.82 3.229 1.25 4.922 1.25s3.359-.43 4.842-1.25c.299-.166 30.283-16.772 60.286-34.79 23.424-14.067 45.62-30.679 56.968-55.96h103.864c16.542 0 30-13.458 30-30v-50c0-5.523-4.478-10-10-10s-10 4.477-10 10v50c0 5.514-4.486 10-10 10h-97.669c1.077-5.825 1.669-12.023 1.669-18.668v-111.307c0-3.788-2.14-7.25-5.527-8.944l-120.04-60.025c-2.817-1.408-6.132-1.408-8.947.001l-119.96 60.025c-3.387 1.694-5.525 5.156-5.525 8.943v111.307c0 6.645.592 12.843 1.669 18.668h-97.67c-5.514 0-10-4.486-10-10v-290h472v150c0 5.523 4.478 10 10 10s10-4.477 10-10v-220c0-16.542-13.458-30-30-30zm-336 276.203 109.962-55.022 110.038 55.024v105.127c0 36.953-21.094 57.044-55.129 77.482-22.629 13.589-45.258 26.374-54.871 31.758-9.611-5.383-32.233-18.164-54.871-31.758-34.035-20.438-55.129-40.529-55.129-77.482zm-126-196.203v-50c0-5.514 4.486-10 10-10h452c5.514 0 10 4.486 10 10v50z"/><path id="XMLID_204_" d="m448 40h-216c-5.522 0-10 4.477-10 10s4.478 10 10 10h216c5.522 0 10-4.477 10-10s-4.478-10-10-10z"/><path id="XMLID_205_" d="m108 40c-2.63 0-5.21 1.07-7.07 2.93-1.861 1.86-2.93 4.44-2.93 7.07 0 2.64 1.069 5.21 2.93 7.07s4.44 2.93 7.07 2.93 5.21-1.07 7.069-2.93c1.861-1.86 2.931-4.44 2.931-7.07s-1.07-5.21-2.931-7.07c-1.859-1.86-4.439-2.93-7.069-2.93z"/><path id="XMLID_206_" d="m64 40c-2.63 0-5.21 1.07-7.07 2.93-1.861 1.86-2.93 4.44-2.93 7.07s1.069 5.21 2.93 7.07 4.44 2.93 7.07 2.93 5.21-1.07 7.069-2.93c1.861-1.86 2.931-4.44 2.931-7.07s-1.07-5.21-2.931-7.07c-1.859-1.86-4.439-2.93-7.069-2.93z"/><path id="XMLID_207_" d="m152 40c-2.63 0-5.21 1.07-7.07 2.93s-2.93 4.44-2.93 7.07 1.069 5.21 2.93 7.07 4.44 2.93 7.07 2.93 5.21-1.07 7.069-2.93c1.861-1.86 2.931-4.44 2.931-7.07s-1.07-5.21-2.931-7.07c-1.859-1.86-4.439-2.93-7.069-2.93z"/><path id="XMLID_208_" d="m288.464 150.017c-5.522 0-10 4.477-10 10s4.478 10 10 10h23.799c5.522 0 10-4.477 10-10s-4.478-10-10-10z"/><path id="XMLID_211_" d="m448 150.017h-86.5c-5.522 0-10 4.477-10 10s4.478 10 10 10h86.5c5.522 0 10-4.477 10-10s-4.478-10-10-10z"/><path id="XMLID_212_" d="m343.5 198.015c-5.522 0-10 4.477-10 10s4.478 10 10 10h46.597c5.522 0 10-4.477 10-10s-4.478-10-10-10z"/><path id="XMLID_213_" d="m448 198.015h-16.718c-5.522 0-10 4.477-10 10s4.478 10 10 10h16.718c5.522 0 10-4.477 10-10s-4.478-10-10-10z"/><path id="XMLID_214_" d="m252.5 160.017c0-5.523-4.478-10-10-10h-72.208c-5.522 0-10 4.477-10 10s4.478 10 10 10h72.208c5.522 0 10-4.477 10-10z"/><path id="XMLID_215_" d="m136.061 160.004c0-5.523-4.478-10-10-10h-62.061c-5.522 0-10 4.477-10 10s4.478 10 10 10h62.061c5.522 0 10-4.477 10-10z"/><path id="XMLID_1504_" d="m56.93 200.94c-1.86 1.86-2.93 4.44-2.93 7.07s1.069 5.21 2.93 7.07c1.86 1.86 4.44 2.93 7.07 2.93s5.21-1.07 7.069-2.93c1.86-1.86 2.931-4.44 2.931-7.07s-1.07-5.21-2.931-7.07c-1.859-1.86-4.439-2.93-7.069-2.93s-5.21 1.07-7.07 2.93z"/><path id="XMLID_1505_" d="m109 218.008h84.5c5.522 0 10-4.477 10-10s-4.478-10-10-10h-84.5c-5.522 0-10 4.477-10 10s4.478 10 10 10z"/><path id="XMLID_1508_" d="m239.61 410.159c1.953 1.953 4.512 2.929 7.071 2.929s5.118-.977 7.071-2.929l69.092-69.091c1.875-1.875 2.929-4.419 2.929-7.071s-1.054-5.196-2.929-7.071l-28.284-28.284c-3.904-3.904-10.234-3.905-14.143 0l-33.736 33.736-15.1-15.1c-3.905-3.905-10.235-3.905-14.143 0l-28.285 28.284c-1.875 1.875-2.929 4.419-2.929 7.071s1.054 5.196 2.929 7.071zm-15.099-71.669 15.1 15.1c3.906 3.906 10.236 3.906 14.143 0l33.736-33.736 14.142 14.142-54.949 54.949-36.313-36.313z"/><path id="XMLID_1509_" d="m502 285c-2.63 0-5.21 1.07-7.07 2.93s-2.93 4.44-2.93 7.07 1.069 5.21 2.93 7.07 4.44 2.93 7.07 2.93 5.21-1.07 7.069-2.93c1.86-1.86 2.931-4.44 2.931-7.07s-1.07-5.21-2.931-7.07c-1.859-1.86-4.439-2.93-7.069-2.93z"/></svg>