<svg xmlns="http://www.w3.org/2000/svg" viewBox="0 0 488.744 287.797"><defs><style>.a{fill:#221f1f;}.b{fill:#bbbdbf;}.c{fill:#e6e6e7;}.d{fill:#f0f1f1;}.e{fill:#914e93;}.f{fill:#29a9e0;}.g{fill:#f69322;}.h{fill:#d34040;}.i{fill:#8bc543;}.j{fill:#929597;}.k,.n{fill:#fff;}.k{opacity:0.3;}.l{fill:#403f41;}.m,.o,.p,.q{fill:none;stroke:#fff;stroke-linecap:round;stroke-miterlimit:10;}.m{stroke-width:2.467px;stroke-dasharray:3.182 8.633;}.o{stroke-width:2.117px;stroke-dasharray:3.291 7.433;}.p{stroke-width:2.396px;stroke-dasharray:3.09 8.385;}.q{stroke-width:2.056px;stroke-dasharray:3.197 7.219;}</style></defs><title>responsive</title><path class="a" d="M244.867,212.016V74.9a11.828,11.828,0,0,0-11.828-11.831H35.6A11.829,11.829,0,0,0,23.772,74.9V212.016Z"/><path class="b" d="M262.5,220.084H6.139C.818,220.084,0,213.045,0,213.045H268.637S267.82,220.084,262.5,220.084Z"/><rect class="c" x="0.002" y="210.296" width="268.635" height="3.949"/><rect class="b" x="108.397" y="210.296" width="51.846" height="2.239"/><rect class="d" x="32.416" y="74.248" width="203.807" height="128.794"/><rect class="e" x="41.662" y="80.344" width="54.598" height="12.002"/><rect class="b" x="106.355" y="80.344" width="119.291" height="12.002"/><rect class="f" x="41.664" y="97.821" width="183.983" height="33.069"/><rect class="g" x="41.664" y="137.544" width="54.596" height="33.46"/><rect class="h" x="106.355" y="137.544" width="54.598" height="33.46"/><rect class="i" x="171.051" y="137.544" width="54.596" height="33.46"/><rect class="j" x="41.664" y="176.098" width="54.596" height="4.753"/><rect class="b" x="41.664" y="184.503" width="54.596" height="4.754"/><rect class="b" x="41.664" y="192.907" width="54.596" height="4.753"/><rect class="j" x="106.355" y="176.098" width="54.598" height="4.753"/><rect class="b" x="106.355" y="184.503" width="54.598" height="4.754"/><rect class="b" x="106.355" y="192.907" width="54.598" height="4.753"/><rect class="j" x="171.051" y="176.098" width="54.596" height="4.753"/><rect class="b" x="171.051" y="184.503" width="54.596" height="4.754"/><rect class="b" x="171.051" y="192.907" width="54.596" height="4.753"/><path class="k" d="M244.941,209.818V74.9a11.827,11.827,0,0,0-11.826-11.831H97.156l88.59,146.745Z"/><path class="a" d="M293.084,74.305h89.129a6.619,6.619,0,0,1,6.619,6.619V214.192a6.618,6.618,0,0,1-6.618,6.618H293.082a6.617,6.617,0,0,1-6.617-6.617V80.925A6.619,6.619,0,0,1,293.084,74.305Z"/><rect class="d" x="293.441" y="88.56" width="88.416" height="117.995"/><path class="l" d="M344.549,214.06a2.424,2.424,0,0,1-2.426,2.424H334.5a2.422,2.422,0,0,1-2.424-2.424h0a2.423,2.423,0,0,1,2.424-2.425h7.623a2.424,2.424,0,0,1,2.426,2.425Z"/><rect class="e" x="298.113" y="95.07" width="27.367" height="11.642"/><rect class="b" x="330.322" y="95.07" width="46.832" height="11.642"/><rect class="f" x="298.113" y="112.976" width="79.041" height="32.717"/><rect class="g" x="298.113" y="151.937" width="35.951" height="22.034"/><rect class="h" x="340.713" y="151.937" width="35.951" height="22.034"/><rect class="j" x="298.113" y="179.364" width="35.951" height="3.129"/><rect class="b" x="298.113" y="185.748" width="35.951" height="3.129"/><rect class="b" x="298.113" y="192.132" width="35.951" height="3.129"/><rect class="b" x="298.113" y="198.516" width="35.951" height="3.129"/><rect class="j" x="340.713" y="179.364" width="35.951" height="3.129"/><rect class="b" x="340.713" y="185.748" width="35.951" height="3.129"/><rect class="b" x="340.713" y="192.132" width="35.951" height="3.129"/><rect class="b" x="340.713" y="198.517" width="35.951" height="3.128"/><path class="k" d="M378.961,220.809h3.252a6.619,6.619,0,0,0,6.621-6.617V80.924a6.621,6.621,0,0,0-6.621-6.62H293.084a6.57,6.57,0,0,0-2.312.424Z"/><path class="a" d="M432.36,113.017h50.22a6.164,6.164,0,0,1,6.164,6.164v96.036a6.164,6.164,0,0,1-6.164,6.164H432.359a6.164,6.164,0,0,1-6.164-6.164V119.182a6.165,6.165,0,0,1,6.165-6.165Z"/><rect class="d" x="430.047" y="126.639" width="54.846" height="79.543"/><path class="l" d="M459.773,120.553a2.3,2.3,0,1,1-2.3-2.3A2.3,2.3,0,0,1,459.773,120.553Z"/><path class="l" d="M463.992,213.858a2.536,2.536,0,0,1-2.537,2.535h-7.973a2.534,2.534,0,0,1-2.535-2.535h0a2.535,2.535,0,0,1,2.535-2.537h7.973a2.537,2.537,0,0,1,2.537,2.537Z"/><rect class="e" x="432.805" y="129.167" width="49.488" height="7.993"/><rect class="b" x="432.805" y="139.841" width="49.486" height="8.849"/><rect class="f" x="432.805" y="151.958" width="49.488" height="19.971"/><rect class="g" x="432.805" y="175.094" width="49.486" height="27.588"/><path class="k" d="M487.838,218.036a6.142,6.142,0,0,0,.687-2.819V119.181a6.165,6.165,0,0,0-6.166-6.164h-50.22a6.158,6.158,0,0,0-5.567,3.533Z"/><path class="m" d="M142.178,42.894c25.769-22.858,55.4-43.506,103.816-41.529,36.461,1.488,73.578,30.526,95.33,57.309"/><path class="n" d="M338.688,60.988a4.76,4.76,0,1,1,5.128-4.36A4.76,4.76,0,0,1,338.688,60.988Z"/><path class="n" d="M137.859,51.032a4.76,4.76,0,1,1,5.127-4.359A4.759,4.759,0,0,1,137.859,51.032Z"/><path class="o" d="M343.205,53.691c7.254-10.448,38.178-23.077,66.428-15.347,28.449,7.784,48.836,35.566,49.779,51.789"/><path class="n" d="M459.85,99.544a4.772,4.772,0,1,1,4.8-4.387A4.6,4.6,0,0,1,459.85,99.544Z"/><path class="p" d="M143.671,241.191c23.867,23.443,51.586,44.933,98.648,45.4,35.44.356,72.875-25.978,95.295-50.883"/><path class="n" d="M335.173,233.339a4.622,4.622,0,1,0,4.758,4.481A4.62,4.62,0,0,0,335.173,233.339Z"/><path class="n" d="M139.884,233.084a4.623,4.623,0,1,0,4.758,4.482A4.622,4.622,0,0,0,139.884,233.084Z"/><path class="q" d="M340.79,245.037c2.92,5.677,29.258,26.205,57.7,26.2,28.645,0,51.621-17.361,59.561-30.815"/><path class="n" d="M459.335,233.628a4.635,4.635,0,1,0,4.092,4.807A4.468,4.468,0,0,0,459.335,233.628Z"/></svg>