<svg id="Capa_1" enable-background="new 0 0 512 512" height="512" fill="#fdc309" viewBox="0 0 512 512" width="512" xmlns="http://www.w3.org/2000/svg"><path d="m163.482 122.895c-.882-2.715-3.229-4.694-6.054-5.104l-47.524-6.906-21.254-43.064c-1.264-2.56-3.871-4.181-6.726-4.181s-5.462 1.621-6.726 4.181l-21.253 43.064-47.524 6.906c-2.825.41-5.172 2.389-6.054 5.104-.882 2.715-.146 5.696 1.898 7.688l34.389 33.521-8.118 47.332c-.482 2.814.674 5.658 2.984 7.335 1.307.95 2.854 1.433 4.409 1.433 1.193 0 2.392-.285 3.489-.861l42.506-22.347 42.507 22.347c2.529 1.328 5.591 1.107 7.898-.571 2.31-1.678 3.466-4.521 2.984-7.335l-8.118-47.332 34.388-33.521c2.045-1.993 2.781-4.973 1.899-7.689zm-49.58 33.22c-1.768 1.723-2.574 4.206-2.157 6.639l6.216 36.24-32.546-17.11c-1.093-.574-2.292-.861-3.49-.861s-2.397.287-3.49.861l-32.545 17.11 6.216-36.24c.417-2.433-.389-4.916-2.157-6.639l-26.33-25.666 36.387-5.288c2.443-.355 4.554-1.889 5.647-4.103l16.273-32.973 16.273 32.973c1.093 2.213 3.204 3.748 5.647 4.103l36.387 5.288z"/><path d="m511.633 122.895c-.882-2.715-3.229-4.694-6.054-5.104l-47.524-6.906-21.253-43.064c-1.264-2.56-3.871-4.181-6.726-4.181s-5.462 1.621-6.726 4.181l-21.253 43.064-47.524 6.906c-2.825.41-5.172 2.389-6.054 5.104s-.146 5.696 1.898 7.688l34.388 33.521-8.118 47.332c-.482 2.814.674 5.658 2.984 7.335 2.31 1.678 5.37 1.9 7.898.571l42.507-22.347 42.506 22.347c1.098.577 2.296.861 3.489.861 1.555 0 3.103-.483 4.409-1.433 2.31-1.678 3.466-4.521 2.984-7.335l-8.118-47.332 34.389-33.521c2.044-1.991 2.78-4.971 1.898-7.687zm-49.58 33.22c-1.768 1.723-2.575 4.206-2.157 6.639l6.216 36.24-32.545-17.11c-2.186-1.148-4.795-1.148-6.98 0l-32.546 17.11 6.216-36.24c.417-2.433-.389-4.916-2.157-6.639l-26.33-25.666 36.387-5.288c2.443-.355 4.554-1.889 5.647-4.103l16.273-32.973 16.273 32.973c1.093 2.213 3.204 3.748 5.647 4.103l36.387 5.288z"/><path d="m210.729 100.464-8.118 47.333c-.482 2.813.674 5.657 2.984 7.335 2.309 1.677 5.371 1.899 7.898.571l42.507-22.348 42.506 22.347c1.098.577 2.296.861 3.489.861 1.555 0 3.103-.483 4.409-1.432 2.31-1.678 3.466-4.522 2.984-7.335l-8.118-47.333 34.388-33.521c2.044-1.993 2.78-4.973 1.898-7.688s-3.229-4.694-6.054-5.104l-47.524-6.906-21.252-43.063c-1.264-2.56-3.871-4.181-6.726-4.181s-5.462 1.621-6.726 4.181l-21.253 43.064-47.524 6.906c-2.825.41-5.172 2.389-6.054 5.104s-.146 5.696 1.898 7.688zm23.351-38.942c2.443-.355 4.554-1.889 5.647-4.103l16.273-32.973 16.273 32.973c1.093 2.213 3.204 3.748 5.647 4.103l36.387 5.288-26.33 25.666c-1.768 1.723-2.574 4.206-2.157 6.638l6.215 36.241-32.545-17.11c-1.093-.574-2.292-.861-3.49-.861-1.199 0-2.397.287-3.49.861l-32.545 17.11 6.215-36.241c.417-2.433-.389-4.915-2.157-6.638l-26.33-25.666z"/><path d="m395.74 285.106c-5.962 0-11.534 1.707-16.251 4.657-2.653-14.266-15.193-25.101-30.216-25.101-5.979 0-11.566 1.717-16.292 4.683-2.739-14.159-15.229-24.886-30.176-24.886-5.746 0-11.128 1.585-15.733 4.34v-44.318c0-16.946-13.787-30.733-30.734-30.733s-30.734 13.787-30.734 30.734v57.977c0 4.142 3.358 7.5 7.5 7.5s7.5-3.358 7.5-7.5v-57.977c0-8.676 7.058-15.734 15.734-15.734s15.734 7.058 15.734 15.733v126.271c0 4.142 3.358 7.5 7.5 7.5s7.5-3.358 7.5-7.5v-55.559c0-8.675 7.058-15.733 15.733-15.733 8.676 0 15.734 7.058 15.734 15.733v55.559c0 4.142 3.358 7.5 7.5 7.5s7.5-3.358 7.5-7.5v-35.355c0-8.676 7.058-15.734 15.734-15.734s15.734 7.058 15.734 15.734v35.355c0 4.142 3.358 7.5 7.5 7.5s7.5-3.358 7.5-7.5v-14.912c0-8.675 7.058-15.733 15.733-15.733 8.676 0 15.734 7.058 15.734 15.733v26.723c0 4.142 3.358 7.5 7.5 7.5s7.5-3.358 7.5-7.5v-26.723c0-16.947-13.787-30.734-30.734-30.734z"/><path d="m418.974 370.042c-4.142 0-7.5 3.358-7.5 7.5v30.489c0 8.376-1.126 16.719-3.347 24.796l-7.496 27.258c-.178.648-.269 1.317-.269 1.989v34.926h-155.045v-45.028c0-1.603-.514-3.164-1.465-4.454l-59.767-80.98c-.222-.301-.467-.585-.731-.85-6.266-6.267-6.266-16.463 0-22.729 6.267-6.267 16.462-6.267 22.729 0l21.718 21.718c2.146 2.146 5.373 2.787 8.173 1.626 2.803-1.161 4.63-3.896 4.63-6.929v-61.874c0-4.142-3.358-7.5-7.5-7.5s-7.5 3.358-7.5 7.5v43.768l-8.915-8.915c-12.114-12.116-31.828-12.115-43.942 0-11.973 11.973-12.112 31.366-.42 43.514l57.99 78.573v50.06c0 4.142 3.358 7.5 7.5 7.5h170.045c4.142 0 7.5-3.358 7.5-7.5v-41.415l7.228-26.282c2.578-9.373 3.884-19.054 3.884-28.773v-30.489c0-4.141-3.358-7.499-7.5-7.499z"/></svg>